<?xml version="1.0" encoding="UTF-8"?>
<svg version="1.1" xmlns="http://www.w3.org/2000/svg" width="200" height="200">
<path d="M0 0 C66 0 132 0 200 0 C200 66 200 132 200 200 C134 200 68 200 0 200 C0 134 0 68 0 0 Z " fill="#13051E" transform="translate(0,0)"/>
<path d="M0 0 C0 3 0 3 -1.21484375 4.4375 C-1.78332031 4.953125 -2.35179687 5.46875 -2.9375 6 C-7.24251737 10.13316039 -10.91666235 14.66245518 -14.64453125 19.31494141 C-16.16086434 21.19997941 -17.68889153 23.07514212 -19.21875 24.94921875 C-24.89468526 31.90462926 -30.5320174 38.87890638 -36 46 C-29.07 46 -22.14 46 -15 46 C-15.99 44.02 -16.98 42.04 -18 40 C-20.64 40.33 -23.28 40.66 -26 41 C-22.49102731 36.81576108 -18.91939465 32.80411834 -15 29 C-11.3524711 30.21584297 -11.15986148 31.00056296 -9.40625 34.296875 C-8.93316406 35.1734375 -8.46007812 36.05 -7.97265625 36.953125 C-7.48667969 37.87609375 -7.00070313 38.7990625 -6.5 39.75 C-5.5319686 41.55767667 -4.56323913 43.36497972 -3.59375 45.171875 C-2.91892578 46.4412793 -2.91892578 46.4412793 -2.23046875 47.73632812 C-1.25793797 49.52547601 -0.21848739 51.27823673 0.84375 53.015625 C2 55 2 55 2 57 C-17.47 57 -36.94 57 -57 57 C-53.13290818 52.48839288 -49.32512127 48.16669855 -45.125 44 C-44.64675781 43.51789063 -44.16851562 43.03578125 -43.67578125 42.5390625 C-40.96505145 39.83548502 -38.17849415 37.26851651 -35.27294922 34.77514648 C-31.15840185 31.18714449 -27.28092922 27.40973675 -23.4375 23.53515625 C-22.76074219 22.85698349 -22.08398438 22.17881073 -21.38671875 21.48008728 C-19.25542325 19.34325695 -17.12765782 17.20295177 -15 15.0625 C-13.54320221 13.60067877 -12.08617299 12.13908813 -10.62890625 10.67773438 C-7.08326027 7.121146 -3.54077261 3.56143984 0 0 Z " fill="#8B79AD" transform="translate(138,43)"/>
<path d="M0 0 C19.14 0 38.28 0 58 0 C53.9325375 4.74537292 49.88655982 9.25143086 45.46484375 13.6328125 C44.86370255 14.23253876 44.26256134 14.83226501 43.64320374 15.45016479 C41.74366575 17.34416656 39.84066827 19.23464686 37.9375 21.125 C36.65796951 22.39950509 35.37867071 23.67424283 34.09960938 24.94921875 C31.22947034 27.80944958 28.35698626 30.66730236 25.48260498 33.52326965 C24.07114227 34.92913962 22.66565648 36.34100275 21.26049805 37.75317383 C18.07127338 40.92310953 14.68451323 43.85263809 11.3046875 46.81640625 C9.24790604 48.76511953 7.61057196 50.67888158 6 53 C5.34 52.67 4.68 52.34 4 52 C8.5 46.5 13 41 17.5 35.5 C18.23992187 34.59507813 18.97984375 33.69015625 19.7421875 32.7578125 C21.26596888 30.89658472 22.79206716 29.0372517 24.3203125 27.1796875 C28.97130631 21.51966452 33.52871301 15.8031597 38 10 C31.07 10 24.14 10 17 10 C17.99 11.65 18.98 13.3 20 15 C20 15.99 20 16.98 20 18 C23.96 16.515 23.96 16.515 28 15 C28 15.66 28 16.32 28 17 C26.35546875 18.62109375 26.35546875 18.62109375 24.1875 20.4375 C21.68897282 22.54463676 19.2757944 24.65241398 17 27 C13.36374484 25.78791495 13.16459792 25.01722771 11.40625 21.73828125 C10.93316406 20.86623047 10.46007812 19.99417969 9.97265625 19.09570312 C9.24369141 17.71801758 9.24369141 17.71801758 8.5 16.3125 C8.01402344 15.41337891 7.52804688 14.51425781 7.02734375 13.58789062 C4.60626228 9.09206768 2.28449121 4.56898243 0 0 Z " fill="#8E7CB1" transform="translate(60,59)"/>
<path d="M0 0 C2.31 0 4.62 0 7 0 C7.33 2.31 7.66 4.62 8 7 C9.5778125 6.9071875 9.5778125 6.9071875 11.1875 6.8125 C15.22460449 7.01104612 16.88362578 7.50690063 20 10 C22.23421993 12.74199719 21.99488929 14.32197481 21.9375 17.9375 C21.42123482 21.07615762 20.82416978 22.25575304 18.9375 25 C14.93056437 27.72812639 12.77809272 27.39164694 8 27 C7.34 27 6.68 27 6 27 C4.02 27 2.04 27 0 27 C0 18.09 0 9.18 0 0 Z " fill="#D2C3EE" transform="translate(103,133)"/>
<path d="M0 0 C0.94488281 -0.04898438 1.88976562 -0.09796875 2.86328125 -0.1484375 C6.90438318 0.60053575 8.2840798 2.08222756 10.6875 5.375 C11.05521245 8.2137401 11.17380804 10.39320151 11 13.1875 C10.97744141 13.88037109 10.95488281 14.57324219 10.93164062 15.28710938 C10.87312661 16.98401573 10.7834548 18.67979861 10.6875 20.375 C8.08271117 20.4559313 5.48043347 20.51545434 2.875 20.5625 C1.76801758 20.60020508 1.76801758 20.60020508 0.63867188 20.63867188 C-4.80758929 20.71260302 -4.80758929 20.71260302 -7.29296875 19.05078125 C-8.93914615 16.3449954 -8.82540771 14.45244625 -8.3125 11.375 C-4.95473849 8.51102695 -1.62862964 7.87687554 2.6875 7.375 C1.70482141 6.16938816 1.70482141 6.16938816 -0.16015625 6.27734375 C-2.2109375 6.30989583 -4.26171875 6.34244792 -6.3125 6.375 C-6.6425 4.725 -6.9725 3.075 -7.3125 1.375 C-4.7764472 0.1069736 -2.83238836 0.09965101 0 0 Z " fill="#CFC0EB" transform="translate(68.3125,139.625)"/>
<path d="M0 0 C0.74121094 -0.03996094 1.48242188 -0.07992187 2.24609375 -0.12109375 C5.89700422 0.7593113 7.32723785 2.47538687 9.5625 5.4375 C9.93021245 8.2762401 10.04880804 10.45570151 9.875 13.25 C9.85244141 13.94287109 9.82988281 14.63574219 9.80664062 15.34960938 C9.74812661 17.04651573 9.6584548 18.74229861 9.5625 20.4375 C7.5825 20.4375 5.6025 20.4375 3.5625 20.4375 C3.5625 19.7775 3.5625 19.1175 3.5625 18.4375 C2.5725 19.0975 1.5825 19.7575 0.5625 20.4375 C-5.50456793 20.97920249 -5.50456793 20.97920249 -8.375 19.3125 C-9.95975401 16.51587528 -9.89697423 14.5881804 -9.4375 11.4375 C-7.9375 9.5625 -7.9375 9.5625 -5.4375 8.4375 C-2.71680412 8.20385245 -0.17883849 8.30043308 2.5625 8.4375 C2.2325 7.7775 1.9025 7.1175 1.5625 6.4375 C-1.4075 6.4375 -4.3775 6.4375 -7.4375 6.4375 C-7.7675 5.1175 -8.0975 3.7975 -8.4375 2.4375 C-5.54728027 0.80560723 -3.31948488 0.09780111 0 0 Z " fill="#D6C6F2" transform="translate(46.4375,139.5625)"/>
<path d="M0 0 C0.99 0.33 1.98 0.66 3 1 C2.34 2.65 1.68 4.3 1 6 C-1.64 5.67 -4.28 5.34 -7 5 C-7 5.66 -7 6.32 -7 7 C-5.1128125 7.1546875 -5.1128125 7.1546875 -3.1875 7.3125 C-0.63475861 7.64232322 0.79802006 7.87376254 3 9.25 C4.39403222 11.68955638 4.41461694 13.23588708 4 16 C2.12139167 18.5048111 1.03898126 18.98700625 -2 20 C-3.68545724 20.09287771 -5.374493 20.12997204 -7.0625 20.125 C-8.37927734 20.12886719 -8.37927734 20.12886719 -9.72265625 20.1328125 C-12 20 -12 20 -14 19 C-13.67 17.35 -13.34 15.7 -13 14 C-9.7 14.33 -6.4 14.66 -3 15 C-3 14.34 -3 13.68 -3 13 C-4.8871875 12.8453125 -4.8871875 12.8453125 -6.8125 12.6875 C-9.36524139 12.35767678 -10.79802006 12.12623746 -13 10.75 C-14.42073717 8.26370995 -14.48148839 6.82014627 -14 4 C-10.80933901 -1.36611166 -5.56623818 -0.56684562 0 0 Z " fill="#CEBEEA" transform="translate(96,140)"/>
<path d="M0 0 C5.61 0 11.22 0 17 0 C17 5.56815039 16.61868362 6.02419058 13 9.8125 C12.2575 10.60269531 11.515 11.39289063 10.75 12.20703125 C10.1725 12.79871094 9.595 13.39039063 9 14 C11.97 14.33 14.94 14.66 18 15 C18 16.65 18 18.3 18 20 C11.73 20 5.46 20 -1 20 C-1 15 -1 15 0.71484375 12.83203125 C1.44832031 12.16558594 2.18179688 11.49914062 2.9375 10.8125 C5.87557386 8.21289233 5.87557386 8.21289233 8 5 C5.36 5 2.72 5 0 5 C0 3.35 0 1.7 0 0 Z " fill="#C6B7E0" transform="translate(166,140)"/>
<path d="M0 0 C0.66 0.33 1.32 0.66 2 1 C1.34 2.65 0.68 4.3 0 6 C-2.64 5.67 -5.28 5.34 -8 5 C-7.18262144 7.18736102 -7.18262144 7.18736102 -4.96875 7.81640625 C-4.1540625 8.06261719 -3.339375 8.30882812 -2.5 8.5625 C1.90888383 9.90888383 1.90888383 9.90888383 3 11 C3.375 13.3125 3.375 13.3125 3 16 C0.77171591 18.74821705 -0.91152882 19.87520713 -4.453125 20.28125 C-8.26164161 20.32579405 -11.36801146 20.21066285 -15 19 C-14.67 17.35 -14.34 15.7 -14 14 C-10.7 14.33 -7.4 14.66 -4 15 C-4 14.34 -4 13.68 -4 13 C-5.8871875 12.8453125 -5.8871875 12.8453125 -7.8125 12.6875 C-10.36524139 12.35767678 -11.79802006 12.12623746 -14 10.75 C-15.42073717 8.26370995 -15.48148839 6.82014627 -15 4 C-11.80628309 -1.62702504 -5.69920519 -0.5518278 0 0 Z " fill="#CCBDE7" transform="translate(32,140)"/>
<path d="M0 0 C2.31 0 4.62 0 7 0 C7 1.65 7 3.3 7 5 C8.32 5 9.64 5 11 5 C11 6.65 11 8.3 11 10 C9.68 10 8.36 10 7 10 C7.24703667 14.0504172 7.24703667 14.0504172 8 18 C9.91764174 19.3762794 9.91764174 19.3762794 12 20 C12.33 20.99 12.66 21.98 13 23 C9.90826248 24.54586876 7.40570448 24.29359521 4 24 C1.5625 22.625 1.5625 22.625 0 20 C-0.32131194 16.63939316 -0.23114045 13.36437766 0 10 C-0.99 10 -1.98 10 -3 10 C-3 8.35 -3 6.7 -3 5 C-2.01 5 -1.02 5 0 5 C0 3.35 0 1.7 0 0 Z " fill="#D1C2EC" transform="translate(151,136)"/>
<path d="M0 0 C2.31 0 4.62 0 7 0 C7 8.91 7 17.82 7 27 C4.69 27 2.38 27 0 27 C0 18.09 0 9.18 0 0 Z " fill="#CABBE6" transform="translate(128,133)"/>
<path d="M0 0 C0.99 0.66 1.98 1.32 3 2 C3.29296875 4.3828125 3.29296875 4.3828125 3.1875 7.125 C3.16042969 8.03507813 3.13335937 8.94515625 3.10546875 9.8828125 C3.07066406 10.58148438 3.03585938 11.28015625 3 12 C1.02 12 -0.96 12 -3 12 C-3 11.34 -3 10.68 -3 10 C-3.99 10.66 -4.98 11.32 -6 12 C-12.06706793 12.54170249 -12.06706793 12.54170249 -14.9375 10.875 C-16.48138276 8.15050101 -16.3267107 6.07108055 -16 3 C-14 1 -14 1 -11.6171875 0.8046875 C-10.71226563 0.82789063 -9.80734375 0.85109375 -8.875 0.875 C-7.50988281 0.90207031 -7.50988281 0.90207031 -6.1171875 0.9296875 C-5.41851562 0.95289063 -4.71984375 0.97609375 -4 1 C-4 1.66 -4 2.32 -4 3 C-6.97 2.505 -6.97 2.505 -10 2 C-9.67 3.65 -9.34 5.3 -9 7 C-5.8616159 6.66071523 -4.4065453 6.45010373 -2.25 4.0625 C-0.98659955 2.04080498 -0.98659955 2.04080498 0 0 Z " fill="#D3C4EF" transform="translate(53,148)"/>
<path d="M0 0 C0.6875 1.8125 0.6875 1.8125 1 4 C-0.4375 5.75 -0.4375 5.75 -2 7 C-1.01 7 -0.02 7 1 7 C-0.5024543 10.5432211 -2.56252265 12.77071524 -5.3125 15.4375 C-6.12460938 16.23027344 -6.93671875 17.02304688 -7.7734375 17.83984375 C-8.50820312 18.55269531 -9.24296875 19.26554687 -10 20 C-11.2065625 21.2375 -11.2065625 21.2375 -12.4375 22.5 C-15.74832043 25.73006872 -19.21796859 28.76712443 -22.6953125 31.81640625 C-24.75209396 33.76511953 -26.38942804 35.67888158 -28 38 C-28.66 37.67 -29.32 37.34 -30 37 C-25.5 31.5 -21 26 -16.5 20.5 C-15.76523438 19.60152344 -15.03046875 18.70304687 -14.2734375 17.77734375 C-12.69699624 15.8514851 -11.11874508 13.9271071 -9.5390625 12.00390625 C-8.74242188 11.03324219 -7.94578125 10.06257813 -7.125 9.0625 C-6.40570313 8.18722656 -5.68640625 7.31195313 -4.9453125 6.41015625 C-3.2469931 4.30601354 -1.60519265 2.1755913 0 0 Z " fill="#8573A5" transform="translate(94,74)"/>
<path d="M0 0 C0.33 0.66 0.66 1.32 1 2 C1.99 2.33 2.98 2.66 4 3 C4 4.65 4 6.3 4 8 C6.97 8 9.94 8 13 8 C11.38207319 11.23585361 10.44195891 12.83246068 8 15.25 C7.484375 15.77078125 6.96875 16.2915625 6.4375 16.828125 C5 18 5 18 3 18 C2.67 18.99 2.34 19.98 2 21 C1.67 20.34 1.34 19.68 1 19 C-1.01669827 17.86649466 -1.01669827 17.86649466 -3 17 C-3 14.36 -3 11.72 -3 9 C-1.68 9 -0.36 9 1 9 C1 7.35 1 5.7 1 4 C-0.32 3.67 -1.64 3.34 -3 3 C-2.01 3 -1.02 3 0 3 C0 2.01 0 1.02 0 0 Z " fill="#13071E" transform="translate(161,137)"/>
<path d="M0 0 C2.31 0 4.62 0 7 0 C7 6.6 7 13.2 7 20 C4.69 20 2.38 20 0 20 C0 13.4 0 6.8 0 0 Z " fill="#CCBCE6" transform="translate(139,140)"/>
<path d="M0 0 C19.47 0 38.94 0 59 0 C59.495 1.98 59.495 1.98 60 4 C58.36938477 6.19824219 58.36938477 6.19824219 55.94140625 8.546875 C55.08095703 9.39121094 54.22050781 10.23554687 53.33398438 11.10546875 C52.41939453 11.97816406 51.50480469 12.85085937 50.5625 13.75 C49.19641602 15.08224609 49.19641602 15.08224609 47.80273438 16.44140625 C45.54589523 18.63916583 43.27824049 20.82446837 41 23 C40.34 22.01 39.68 21.02 39 20 C44.94 14.06 50.88 8.12 57 2 C38.19 1.67 19.38 1.34 0 1 C0 0.67 0 0.34 0 0 Z " fill="#38294A" transform="translate(60,58)"/>
<path d="M0 0 C2.5625 0.1875 2.5625 0.1875 4.5625 2.1875 C4.1875 5.3125 4.1875 5.3125 3.5625 8.1875 C4.2225 8.5175 4.8825 8.8475 5.5625 9.1875 C5.5625 11.1675 5.5625 13.1475 5.5625 15.1875 C4.5725 15.6825 4.5725 15.6825 3.5625 16.1875 C3.5625 13.8775 3.5625 11.5675 3.5625 9.1875 C1.2525 9.1875 -1.0575 9.1875 -3.4375 9.1875 C-3.4375 15.4575 -3.4375 21.7275 -3.4375 28.1875 C-3.7675 28.1875 -4.0975 28.1875 -4.4375 28.1875 C-4.7675 26.5375 -5.0975 24.8875 -5.4375 23.1875 C-5.7675 23.1875 -6.0975 23.1875 -6.4375 23.1875 C-6.51902344 20.64517658 -6.57823716 18.10550798 -6.625 15.5625 C-6.65013672 14.84964844 -6.67527344 14.13679687 -6.70117188 13.40234375 C-6.76769225 8.56853005 -6.02239047 5.41968843 -3.4375 1.1875 C-2.4375 0.1875 -2.4375 0.1875 0 0 Z " fill="#170A24" transform="translate(142.4375,130.8125)"/>
<path d="M0 0 C4.75 0.75 4.75 0.75 7 3 C7.37130746 5.89619822 7.46583421 7.37888771 5.6875 9.75 C2.55672592 12.06909191 -0.30514013 12.13606733 -4.0625 12.125 C-5.37927734 12.12886719 -5.37927734 12.12886719 -6.72265625 12.1328125 C-9 12 -9 12 -11 11 C-10.67 9.35 -10.34 7.7 -10 6 C-6.7 6.33 -3.4 6.66 0 7 C0 6.34 0 5.68 0 5 C-0.99 4.67 -1.98 4.34 -3 4 C-1.68 4 -0.36 4 1 4 C1.33 4.66 1.66 5.32 2 6 C2 5.01 2 4.02 2 3 C1.34 2.67 0.68 2.34 0 2 C0 1.34 0 0.68 0 0 Z " fill="#C7B7E1" transform="translate(93,148)"/>
<path d="M0 0 C0.66 0.33 1.32 0.66 2 1 C2.625 3.0625 2.625 3.0625 3 5 C5.01822917 4.90234375 7.03645833 4.8046875 9.0546875 4.70703125 C9.69664063 4.80371094 10.33859375 4.90039062 11 5 C11.99 6.485 11.99 6.485 13 8 C12.28972656 8.13277344 11.57945313 8.26554688 10.84765625 8.40234375 C9.92855469 8.57894531 9.00945312 8.75554687 8.0625 8.9375 C7.14597656 9.11152344 6.22945312 9.28554687 5.28515625 9.46484375 C3.04710156 9.77714988 3.04710156 9.77714988 2 11 C1.95907063 13.33297433 1.95758277 15.66705225 2 18 C1.01 18.33 0.02 18.66 -1 19 C-0.98259766 17.93458984 -0.98259766 17.93458984 -0.96484375 16.84765625 C-0.95582031 15.92855469 -0.94679688 15.00945312 -0.9375 14.0625 C-0.92589844 13.14597656 -0.91429687 12.22945312 -0.90234375 11.28515625 C-0.74050951 9.03406673 -0.74050951 9.03406673 -2 8 C-2 11.96 -2 15.92 -2 20 C-2.33 20 -2.66 20 -3 20 C-3.06058594 18.95199219 -3.12117188 17.90398437 -3.18359375 16.82421875 C-3.26801738 15.44529952 -3.35266447 14.06639395 -3.4375 12.6875 C-3.47681641 11.99720703 -3.51613281 11.30691406 -3.55664062 10.59570312 C-3.74927415 7.52838465 -4.02322717 4.93031848 -5 2 C-2.625 0.9375 -2.625 0.9375 0 0 Z " fill="#231830" transform="translate(59,140)"/>
<path d="M0 0 C2.97 0.495 2.97 0.495 6 1 C6 1.66 6 2.32 6 3 C10.455 2.505 10.455 2.505 15 2 C15.33 2.99 15.66 3.98 16 5 C12.37 5.66 8.74 6.32 5 7 C5 6.34 5 5.68 5 5 C4.34 5 3.68 5 3 5 C3 5.66 3 6.32 3 7 C-0.63 6.34 -4.26 5.68 -8 5 C-8.33 4.01 -8.66 3.02 -9 2 C-6.36 2 -3.72 2 -1 2 C-0.67 1.34 -0.34 0.68 0 0 Z " fill="#21152D" transform="translate(33,143)"/>
<path d="M0 0 C0.33 0 0.66 0 1 0 C1 4.95 1 9.9 1 15 C-1.62527189 15.05382106 -4.24944713 15.09358313 -6.875 15.125 C-7.62136719 15.14175781 -8.36773437 15.15851563 -9.13671875 15.17578125 C-11.09194461 15.1933959 -13.04742021 15.10320189 -15 15 C-15.66 14.34 -16.32 13.68 -17 13 C-17 12.01 -17 11.02 -17 10 C-16.34 10 -15.68 10 -15 10 C-14.67 9.34 -14.34 8.68 -14 8 C-11.35139573 7.40644386 -8.70802678 7.25790731 -6 7 C-7.75 10.875 -7.75 10.875 -10 12 C-6.7 12.66 -3.4 13.32 0 14 C0 9.38 0 4.76 0 0 Z " fill="#B8A9D1" transform="translate(78,145)"/>
<path d="M0 0 C0.33 0 0.66 0 1 0 C1 8.91 1 17.82 1 27 C0.67 27 0.34 27 0 27 C-0.0825 25.741875 -0.165 24.48375 -0.25 23.1875 C-0.68589388 19.86273449 -0.68589388 19.86273449 -2.5625 17.125 C-5.97053317 15.55206161 -9.33040458 14.79507901 -13 14 C-13 13.34 -13 12.68 -13 12 C-11.741875 12.0825 -10.48375 12.165 -9.1875 12.25 C-7.01202652 12.31688143 -7.01202652 12.31688143 -5 12 C-2.94729537 10.15811388 -2.94729537 10.15811388 -2 8 C-1.67 8.33 -1.34 8.66 -1 9 C-0.67 6.03 -0.34 3.06 0 0 Z " fill="#281A35" transform="translate(102,133)"/>
<path d="M0 0 C1.65 0 3.3 0 5 0 C6 3 6 3 5.9375 5.5625 C5.72472678 8.18389309 5.72472678 8.18389309 8 10 C9.96690374 10.67292501 9.96690374 10.67292501 12.125 11.125 C14.043125 11.558125 14.043125 11.558125 16 12 C16 12.66 16 13.32 16 14 C11.71 13.67 7.42 13.34 3 13 C2.26757812 9.6796875 2.26757812 9.6796875 1.53515625 6.359375 C1.052444 4.23121297 0.53836822 2.11467158 0 0 Z " fill="#13061E" transform="translate(77,141)"/>
<path d="M0 0 C1.66666667 0 3.33333333 0 5 0 C5 1.65 5 3.3 5 5 C4.01 5 3.02 5 2 5 C1.731875 5.61875 1.46375 6.2375 1.1875 6.875 C0 9 0 9 -3 11 C-5.6875 10.625 -5.6875 10.625 -8 10 C-8 8.35 -8 6.7 -8 5 C-5.03 5.495 -5.03 5.495 -2 6 C-2 5.34 -2 4.68 -2 4 C-4.64 4 -7.28 4 -10 4 C-10 3.67 -10 3.34 -10 3 C-9.36191406 2.95101562 -8.72382812 2.90203125 -8.06640625 2.8515625 C-7.24011719 2.77679688 -6.41382813 2.70203125 -5.5625 2.625 C-4.73878906 2.55539063 -3.91507813 2.48578125 -3.06640625 2.4140625 C-2.38449219 2.27742187 -1.70257813 2.14078125 -1 2 C-0.67 1.34 -0.34 0.68 0 0 Z " fill="#C2B2DC" transform="translate(51,145)"/>
<path d="M0 0 C0.33 0 0.66 0 1 0 C1 2.64 1 5.28 1 8 C3.97 8.495 3.97 8.495 7 9 C7.33 8.34 7.66 7.68 8 7 C8.99 7 9.98 7 11 7 C10.375 8.875 10.375 8.875 9 11 C8.01 11.309375 7.02 11.61875 6 11.9375 C2.78057372 12.69500878 2.78057372 12.69500878 1.625 15.625 C1.41875 16.40875 1.2125 17.1925 1 18 C-0.65 16.68 -2.3 15.36 -4 14 C-2.125 8.125 -2.125 8.125 -1 7 C-0.63239269 4.67182036 -0.29758419 2.3381615 0 0 Z " fill="#D8C9F5" transform="translate(108,134)"/>
<path d="M0 0 C0.33 0.66 0.66 1.32 1 2 C3.97 2 6.94 2 10 2 C10 3.32 10 4.64 10 6 C4.39 6 -1.22 6 -7 6 C-6.67 5.01 -6.34 4.02 -6 3 C-5.34 3 -4.68 3 -4 3 C-2.63838689 2.03886134 -1.30144802 1.04115841 0 0 Z " fill="#D7C7F5" transform="translate(173,153)"/>
<path d="M0 0 C2.93453261 0.36681658 3.86437246 0.86437246 6 3 C5.67028521 6.29714793 5.3773161 7.6226839 3 10 C-0.53571429 9.46428571 -0.53571429 9.46428571 -2 8 C-2.1875 5.0625 -2.1875 5.0625 -2 2 C-1.34 1.34 -0.68 0.68 0 0 Z " fill="#170C23" transform="translate(112,145)"/>
<path d="M0 0 C2.64 0 5.28 0 8 0 C6.40907948 4.13639336 3.39525082 7.23213248 0 10 C-0.66 10 -1.32 10 -2 10 C-2.33 10.99 -2.66 11.98 -3 13 C-3.33 12.34 -3.66 11.68 -4 11 C-4.99 10.34 -5.98 9.68 -7 9 C-5.35 9 -3.7 9 -2 9 C-2 8.01 -2 7.02 -2 6 C-1.34 6 -0.68 6 0 6 C0 4.02 0 2.04 0 0 Z " fill="#22142E" transform="translate(166,145)"/>
<path d="M0 0 C2.40928735 0.96371494 3.76007009 1.65210163 5.25 3.8125 C6.11081611 6.32321365 6.14647297 8.36348649 6 11 C5.67 10.01 5.34 9.02 5 8 C3.35 8.66 1.7 9.32 0 10 C-1.33333333 8 -2.66666667 6 -4 4 C-2.68 2.68 -1.36 1.36 0 0 Z " fill="#C6B7E1" transform="translate(119,141)"/>
<path d="M0 0 C2.5625 0.1875 2.5625 0.1875 4.5625 2.1875 C4.02678571 5.72321429 4.02678571 5.72321429 2.5625 7.1875 C0.125 7.375 0.125 7.375 -2.4375 7.1875 C-3.0975 6.5275 -3.7575 5.8675 -4.4375 5.1875 C-3.69457547 0.28419811 -3.69457547 0.28419811 0 0 Z " fill="#C4B5DC" transform="translate(142.4375,130.8125)"/>
<path d="M0 0 C2.64 0 5.28 0 8 0 C7.09066991 1.27609323 6.17217147 2.54565553 5.25 3.8125 C4.73953125 4.52019531 4.2290625 5.22789063 3.703125 5.95703125 C1.97517642 8.02977691 0.21473524 9.47375854 -2 11 C-2.19622241 6.78121808 -1.80230168 3.82989106 0 0 Z " fill="#13051F" transform="translate(89,71)"/>
<path d="M0 0 C0.66 0.33 1.32 0.66 2 1 C2.625 3.5625 2.625 3.5625 3 6 C1.35 6.66 -0.3 7.32 -2 8 C-2 11.96 -2 15.92 -2 20 C-2.33 20 -2.66 20 -3 20 C-3.06058594 18.95199219 -3.12117188 17.90398437 -3.18359375 16.82421875 C-3.26801738 15.44529952 -3.35266447 14.06639395 -3.4375 12.6875 C-3.47681641 11.99720703 -3.51613281 11.30691406 -3.55664062 10.59570312 C-3.74927415 7.52838465 -4.02322717 4.93031848 -5 2 C-2.625 0.9375 -2.625 0.9375 0 0 Z " fill="#21132C" transform="translate(59,140)"/>
<path d="M0 0 C0.66 0.33 1.32 0.66 2 1 C0.75023244 4.65316671 0.32901247 5.78065836 -3 8 C-5.04296875 8.1953125 -5.04296875 8.1953125 -7.1875 8.125 C-9.0746875 8.063125 -9.0746875 8.063125 -11 8 C-8 6 -8 6 -6 6 C-5.7525 5.38125 -5.505 4.7625 -5.25 4.125 C-3.78043163 1.62673377 -2.71435596 0.93305986 0 0 Z " fill="#CFBEEB" transform="translate(122,152)"/>
<path d="M0 0 C0.66 1.32 1.32 2.64 2 4 C1.125 6.25 1.125 6.25 0 8 C-0.66 8 -1.32 8 -2 8 C-5.28166277 8.52930045 -6.82283751 9.49626313 -9 12 C-9.66 11.67 -10.32 11.34 -11 11 C-7.37 7.37 -3.74 3.74 0 0 Z " fill="#8472A3" transform="translate(98,82)"/>
<path d="M0 0 C0.66 0.99 1.32 1.98 2 3 C3.32 2.67 4.64 2.34 6 2 C5.8125 3.875 5.8125 3.875 5 6 C2.10888212 7.52164099 0.28176588 8 -3 8 C-2.34 7.01 -1.68 6.02 -1 5 C-0.61500109 3.34450469 -0.27206865 1.6777567 0 0 Z M-4 9 C-3.34 9 -2.68 9 -2 9 C-2 9.66 -2 10.32 -2 11 C-2.66 11 -3.32 11 -4 11 C-4 10.34 -4 9.68 -4 9 Z " fill="#D5C5F1" transform="translate(118,147)"/>
<path d="M0 0 C0 0.33 0 0.66 0 1 C-4.455 1.495 -4.455 1.495 -9 2 C-9.33 3.32 -9.66 4.64 -10 6 C-10.99 6 -11.98 6 -13 6 C-13.33 6.99 -13.66 7.98 -14 9 C-14.34098943 5.93109509 -14.21961817 4.36935783 -12.625 1.6875 C-8.60769589 -0.89505264 -4.64855591 -0.31936644 0 0 Z " fill="#C8B8E1" transform="translate(96,140)"/>
<path d="M0 0 C4.455 0.99 4.455 0.99 9 2 C8.01 3.485 8.01 3.485 7 5 C5.0546875 5.29296875 5.0546875 5.29296875 2.875 5.1875 C1.59625 5.125625 0.3175 5.06375 -1 5 C-0.67 3.35 -0.34 1.7 0 0 Z " fill="#CFBFEA" transform="translate(83,154)"/>
<path d="M0 0 C5.445 1.485 5.445 1.485 11 3 C11 3.66 11 4.32 11 5 C6.83861737 5.08159574 3.0527516 4.98248524 -1 4 C-0.67 2.68 -0.34 1.36 0 0 Z " fill="#1C1029" transform="translate(82,150)"/>
<path d="M0 0 C2.4375 0.8125 2.4375 0.8125 5 2 C5.33 2.99 5.66 3.98 6 5 C3.04335481 6.4783226 0.25770263 6.06032783 -3 6 C-2.01 5.67 -1.02 5.34 0 5 C-0.99 4.34 -1.98 3.68 -3 3 C-2.01 2.01 -1.02 1.02 0 0 Z " fill="#CCBDE7" transform="translate(158,154)"/>
<path d="M0 0 C1.32 0 2.64 0 4 0 C4.79953138 3.28696233 5.09658936 4.71023192 4 8 C0.7 8 -2.6 8 -6 8 C-6 7.67 -6 7.34 -6 7 C-4.35 6.67 -2.7 6.34 -1 6 C-1.33 5.01 -1.66 4.02 -2 3 C-0.35 3 1.3 3 3 3 C3 2.34 3 1.68 3 1 C2.01 0.67 1.02 0.34 0 0 Z " fill="#BCADD5" transform="translate(90,152)"/>
<path d="M0 0 C0 1.65 0 3.3 0 5 C-2.31 4.67 -4.62 4.34 -7 4 C-7 3.34 -7 2.68 -7 2 C-8.32 1.67 -9.64 1.34 -11 1 C-7.25536075 0.16785795 -3.83871745 0 0 0 Z " fill="#C1B1DA" transform="translate(35,151)"/>
<path d="M0 0 C2.97 0.33 5.94 0.66 9 1 C9 1.99 9 2.98 9 4 C8.01 4.495 8.01 4.495 7 5 C7 4.34 7 3.68 7 3 C4.69 3.33 2.38 3.66 0 4 C0 2.68 0 1.36 0 0 Z " fill="#D6C6F2" transform="translate(24,148)"/>
<path d="M0 0 C0.33 0 0.66 0 1 0 C1.33 2.31 1.66 4.62 2 7 C4.31 7 6.62 7 9 7 C8.34 8.32 7.68 9.64 7 11 C4.625 11.125 4.625 11.125 2 11 C0 9 0 9 -0.1953125 6.8359375 C-0.17210938 6.02382812 -0.14890625 5.21171875 -0.125 4.375 C-0.10695313 3.55773437 -0.08890625 2.74046875 -0.0703125 1.8984375 C-0.04710938 1.27195313 -0.02390625 0.64546875 0 0 Z " fill="#B4A5CC" transform="translate(109,133)"/>
<path d="M0 0 C2.64 0 5.28 0 8 0 C8 1.32 8 2.64 8 4 C3.71 4 -0.58 4 -5 4 C-5 3.67 -5 3.34 -5 3 C-0.545 2.505 -0.545 2.505 4 2 C2.68 1.34 1.36 0.68 0 0 Z " fill="#DECEF9" transform="translate(175,155)"/>
<path d="M0 0 C2.875 0.1875 2.875 0.1875 6 1 C7.375 3.5625 7.375 3.5625 8 6 C7.01 6.33 6.02 6.66 5 7 C5 6.01 5 5.02 5 4 C3.35 4 1.7 4 0 4 C0 2.68 0 1.36 0 0 Z " fill="#DACAF6" transform="translate(89,148)"/>
<path d="M0 0 C1.32 0.66 2.64 1.32 4 2 C3.6875 3.875 3.6875 3.875 3 6 C2.01 6.66 1.02 7.32 0 8 C-1.125 6.25 -1.125 6.25 -2 4 C-1.125 1.75 -1.125 1.75 0 0 Z " fill="#11041C" transform="translate(78,85)"/>
<path d="M0 0 C0.66 0.33 1.32 0.66 2 1 C1.67 1.66 1.34 2.32 1 3 C1.66 3 2.32 3 3 3 C3 3.99 3 4.98 3 6 C1.02 6 -0.96 6 -3 6 C-3.33 5.01 -3.66 4.02 -4 3 C-2.68 2.01 -1.36 1.02 0 0 Z " fill="#C9BAE4" transform="translate(53,154)"/>
<path d="M0 0 C0.721875 0.144375 1.44375 0.28875 2.1875 0.4375 C0.9809375 1.3965625 0.9809375 1.3965625 -0.25 2.375 C-2.0875504 3.84353502 -2.0875504 3.84353502 -3.8125 5.4375 C-2.1625 5.7675 -0.5125 6.0975 1.1875 6.4375 C1.1875 6.7675 1.1875 7.0975 1.1875 7.4375 C-1.7825 7.4375 -4.7525 7.4375 -7.8125 7.4375 C-3.50480769 0.54519231 -3.50480769 0.54519231 0 0 Z " fill="#322540" transform="translate(181.8125,147.5625)"/>
<path d="M0 0 C2.64 0 5.28 0 8 0 C7.375 1.9375 7.375 1.9375 6 4 C2.875 4.75 2.875 4.75 0 5 C0 3.35 0 1.7 0 0 Z " fill="#2C1F3A" transform="translate(166,145)"/>
<path d="M0 0 C1.2065625 0.0309375 1.2065625 0.0309375 2.4375 0.0625 C1.7775 2.0425 1.1175 4.0225 0.4375 6.0625 C-2.5325 5.5675 -2.5325 5.5675 -5.5625 5.0625 C-3.15007962 0.07683121 -3.15007962 0.07683121 0 0 Z " fill="#11041D" transform="translate(109.5625,81.9375)"/>
<path d="M0 0 C8.19256018 -0.4726477 8.19256018 -0.4726477 11.5625 1.5 C12.036875 1.995 12.51125 2.49 13 3 C12.67 4.32 12.34 5.64 12 7 C9 5 9 5 8 2 C5.36 1.67 2.72 1.34 0 1 C0 0.67 0 0.34 0 0 Z " fill="#C6B7DF" transform="translate(42,140)"/>
<path d="M0 0 C0 3 0 3 -1.42578125 4.71875 C-2.04839844 5.3065625 -2.67101562 5.894375 -3.3125 6.5 C-3.92738281 7.0878125 -4.54226562 7.675625 -5.17578125 8.28125 C-5.77777344 8.8484375 -6.37976563 9.415625 -7 10 C-8.00339172 10.99659674 -9.00460469 11.99541642 -10 13 C-10 10 -10 10 -7.8125 7.51953125 C-6.884375 6.62621094 -5.95625 5.73289062 -5 4.8125 C-4.071875 3.91144531 -3.14375 3.01039062 -2.1875 2.08203125 C-1.1046875 1.05142578 -1.1046875 1.05142578 0 0 Z " fill="#766590" transform="translate(138,43)"/>
<path d="M0 0 C2.475 0.99 2.475 0.99 5 2 C4.360625 2.61875 3.72125 3.2375 3.0625 3.875 C0.96116416 5.82597612 0.96116416 5.82597612 0 8 C-1 7 -1 7 -1.125 4 C-1 1 -1 1 0 0 Z " fill="#DBCBF7" transform="translate(61,150)"/>
<path d="M0 0 C1.32 0.66 2.64 1.32 4 2 C3.34 2.66 2.68 3.32 2 4 C1.83322718 7.58343976 1.83322718 7.58343976 2 11 C1.01 11.33 0.02 11.66 -1 12 C-1.02698189 10.37509046 -1.04638757 8.75005367 -1.0625 7.125 C-1.07410156 6.22007812 -1.08570313 5.31515625 -1.09765625 4.3828125 C-1 2 -1 2 0 0 Z " fill="#32243E" transform="translate(59,147)"/>
<path d="M0 0 C1.98 0 3.96 0 6 0 C5.67 2.64 5.34 5.28 5 8 C3.68 7.34 2.36 6.68 1 6 C1 5.01 1 4.02 1 3 C1.66 2.67 2.32 2.34 3 2 C2.01 1.34 1.02 0.68 0 0 Z " fill="#CEBFEA" transform="translate(103,133)"/>
<path d="M0 0 C2.475 0.495 2.475 0.495 5 1 C5.66 2.98 6.32 4.96 7 7 C5.68 6.67 4.36 6.34 3 6 C2.87625 5.195625 2.7525 4.39125 2.625 3.5625 C2.315625 2.2940625 2.315625 2.2940625 2 1 C1.34 0.67 0.68 0.34 0 0 Z " fill="#20122E" transform="translate(116,82)"/>
<path d="M0 0 C1.65 0 3.3 0 5 0 C4.67 1.32 4.34 2.64 4 4 C2.35 3.67 0.7 3.34 -1 3 C-0.67 2.01 -0.34 1.02 0 0 Z " fill="#2C2039" transform="translate(44,152)"/>
<path d="M0 0 C0.99 0 1.98 0 3 0 C2.75 1.875 2.75 1.875 2 4 C-0.0625 5.25 -0.0625 5.25 -2 6 C-2 3 -2 3 0 0 Z " fill="#8A78AB" transform="translate(80,91)"/>
<path d="M0 0 C0 2.83967231 -0.40267181 5.23735711 -1 8 C-2.65 7.67 -4.3 7.34 -6 7 C-4.02 4.69 -2.04 2.38 0 0 Z " fill="#927FB5" transform="translate(107,74)"/>
<path d="M0 0 C0.99 0 1.98 0 3 0 C2.67 1.65 2.34 3.3 2 5 C-0.60582371 5.93065133 -1.64198224 6.14917407 -4.25 5.0625 C-4.8275 4.711875 -5.405 4.36125 -6 4 C-4.7934375 3.566875 -4.7934375 3.566875 -3.5625 3.125 C-0.8673532 2.26737432 -0.8673532 2.26737432 0 0 Z " fill="#DCCCF8" transform="translate(50,152)"/>
<path d="M0 0 C0.8125 1.6875 0.8125 1.6875 1 4 C-1.3125 6.75 -1.3125 6.75 -4 9 C-4.66 9 -5.32 9 -6 9 C-4.47291037 5.56404834 -2.40072955 2.88087546 0 0 Z " fill="#7F6D9D" transform="translate(94,74)"/>
<path d="M0 0 C0.33 1.32 0.66 2.64 1 4 C-0.65 5.32 -2.3 6.64 -4 8 C-4.33 7.34 -4.66 6.68 -5 6 C-3.35 4.02 -1.7 2.04 0 0 Z " fill="#1B0D2A" transform="translate(124,61)"/>
<path d="M0 0 C0.99 0.33 1.98 0.66 3 1 C3 2.65 3 4.3 3 6 C1.68 6.33 0.36 6.66 -1 7 C-0.67 4.69 -0.34 2.38 0 0 Z " fill="#190C22" transform="translate(124,152)"/>
<path d="M0 0 C1.65 0 3.3 0 5 0 C4.34 1.32 3.68 2.64 3 4 C1.68 3.67 0.36 3.34 -1 3 C-0.67 2.01 -0.34 1.02 0 0 Z " fill="#20142B" transform="translate(67,152)"/>
<path d="M0 0 C1.65 0 3.3 0 5 0 C5 1.65 5 3.3 5 5 C3.68 5 2.36 5 1 5 C0 1.125 0 1.125 0 0 Z " fill="#CFBFEA" transform="translate(140,131)"/>
<path d="M0 0 C1.67542976 0.28604898 3.34385343 0.61781233 5 1 C5 2.32 5 3.64 5 5 C3.35 5 1.7 5 0 5 C-0.5625 3.0625 -0.5625 3.0625 -1 1 C-0.67 0.67 -0.34 0.34 0 0 Z " fill="#12051B" transform="translate(115,84)"/>
<path d="M0 0 C2.31 0.33 4.62 0.66 7 1 C7 1.66 7 2.32 7 3 C4.69 3 2.38 3 0 3 C0 2.01 0 1.02 0 0 Z " fill="#1A0F27" transform="translate(21,152)"/>
<path d="M0 0 C1.65 0 3.3 0 5 0 C6 3 6 3 5.0625 5.1875 C4.5365625 6.0846875 4.5365625 6.0846875 4 7 C3.67 5.02 3.34 3.04 3 1 C2.34 1 1.68 1 1 1 C0.67 1.66 0.34 2.32 0 3 C0 2.01 0 1.02 0 0 Z " fill="#1A0D27" transform="translate(77,141)"/>
<path d="M0 0 C0.66 0 1.32 0 2 0 C2.33 1.32 2.66 2.64 3 4 C0.36 4 -2.28 4 -5 4 C-2 2 -2 2 0 2 C0 1.34 0 0.68 0 0 Z " fill="#C1B1DC" transform="translate(116,156)"/>
<path d="M0 0 C0.6875 1.8125 0.6875 1.8125 1 4 C-0.25 5.75 -0.25 5.75 -2 7 C-2.99 7 -3.98 7 -5 7 C-4.67 6.01 -4.34 5.02 -4 4 C-3.34 4 -2.68 4 -2 4 C-1.34 2.68 -0.68 1.36 0 0 Z " fill="#30243F" transform="translate(117,148)"/>
<path d="M0 0 C0.33 0.66 0.66 1.32 1 2 C1.66 2 2.32 2 3 2 C2.67 4.31 2.34 6.62 2 9 C1.67 9 1.34 9 1 9 C1 7.35 1 5.7 1 4 C-0.32 3.67 -1.64 3.34 -3 3 C-2.01 3 -1.02 3 0 3 C0 2.01 0 1.02 0 0 Z " fill="#2E203B" transform="translate(161,137)"/>
<path d="M0 0 C0.33 0.99 0.66 1.98 1 3 C1.66 3.33 2.32 3.66 3 4 C0.36 4.66 -2.28 5.32 -5 6 C-3.35 4.02 -1.7 2.04 0 0 Z " fill="#8775A5" transform="translate(117,78)"/>
</svg>
